<svg xmlns="http://www.w3.org/2000/svg" width="1600" height="900" viewBox="0 0 1600 900" role="img" aria-label="Подача заявления для включения в реестр отечественного ПО">
  <defs>
    <linearGradient id="bg" x1="0" x2="1" y1="0" y2="1">
      <stop offset="0" stop-color="#f8fbff"/>
      <stop offset="0.55" stop-color="#dcecff"/>
      <stop offset="1" stop-color="#9fc7fb"/>
    </linearGradient>
    <linearGradient id="blue" x1="0" x2="1">
      <stop offset="0" stop-color="#0b4fbd"/>
      <stop offset="1" stop-color="#1f7cf3"/>
    </linearGradient>
    <filter id="shadow" x="-20%" y="-20%" width="140%" height="140%">
      <feDropShadow dx="0" dy="18" stdDeviation="18" flood-color="#0b2f67" flood-opacity=".25"/>
    </filter>
  </defs>
  <rect width="1600" height="900" fill="url(#bg)"/>
  <g opacity=".25" fill="#ffffff">
    <circle cx="980" cy="120" r="4"/><circle cx="1010" cy="120" r="4"/><circle cx="1040" cy="120" r="4"/>
    <circle cx="950" cy="150" r="4"/><circle cx="980" cy="150" r="4"/><circle cx="1010" cy="150" r="4"/><circle cx="1040" cy="150" r="4"/><circle cx="1070" cy="150" r="4"/>
    <circle cx="920" cy="180" r="4"/><circle cx="950" cy="180" r="4"/><circle cx="980" cy="180" r="4"/><circle cx="1010" cy="180" r="4"/><circle cx="1040" cy="180" r="4"/><circle cx="1070" cy="180" r="4"/><circle cx="1100" cy="180" r="4"/>
    <circle cx="890" cy="210" r="4"/><circle cx="920" cy="210" r="4"/><circle cx="950" cy="210" r="4"/><circle cx="980" cy="210" r="4"/><circle cx="1010" cy="210" r="4"/><circle cx="1040" cy="210" r="4"/><circle cx="1070" cy="210" r="4"/><circle cx="1100" cy="210" r="4"/><circle cx="1130" cy="210" r="4"/>
    <circle cx="1170" cy="165" r="4"/><circle cx="1200" cy="165" r="4"/><circle cx="1230" cy="165" r="4"/>
    <circle cx="1170" cy="195" r="4"/><circle cx="1200" cy="195" r="4"/><circle cx="1230" cy="195" r="4"/><circle cx="1260" cy="195" r="4"/>
    <circle cx="1290" cy="225" r="4"/><circle cx="1320" cy="225" r="4"/><circle cx="1350" cy="225" r="4"/><circle cx="1380" cy="225" r="4"/>
  </g>
  <g transform="translate(76 80)">
    <rect width="120" height="120" rx="18" fill="url(#blue)"/>
    <text x="60" y="73" text-anchor="middle" font-family="Arial, sans-serif" font-weight="700" font-size="52" fill="#fff">РФ</text>
    <text x="150" y="55" font-family="Arial, sans-serif" font-weight="700" font-size="26" fill="#1554b7">МИНЦИФРЫ</text>
    <text x="150" y="89" font-family="Arial, sans-serif" font-weight="700" font-size="26" fill="#1554b7">РОССИИ</text>
  </g>
  <g transform="translate(78 260)">
    <text font-family="Arial, sans-serif" font-weight="800" font-size="70" fill="#082e66">Подача заявления</text>
    <text y="92" font-family="Arial, sans-serif" font-weight="800" font-size="70" fill="#082e66">для включения</text>
    <text y="184" font-family="Arial, sans-serif" font-weight="800" font-size="70" fill="#082e66">в реестр отечественного ПО</text>
    <rect y="230" width="4" height="130" fill="#1f6ed5"/>
    <text x="28" y="260" font-family="Arial, sans-serif" font-size="31" fill="#1d5bbd">Официальный процесс включения</text>
    <text x="28" y="304" font-family="Arial, sans-serif" font-size="31" fill="#1d5bbd">программного обеспечения</text>
    <text x="28" y="348" font-family="Arial, sans-serif" font-size="31" fill="#1d5bbd">в Реестр российского ПО</text>
  </g>
  <g transform="translate(970 166) rotate(6)" filter="url(#shadow)">
    <rect width="500" height="330" rx="18" fill="#111827"/>
    <rect x="18" y="18" width="464" height="294" rx="8" fill="#ffffff"/>
    <rect x="18" y="18" width="464" height="70" rx="8" fill="#123f78"/>
    <text x="42" y="62" font-family="Arial, sans-serif" font-weight="700" font-size="25" fill="#fff">Минцифры России</text>
    <text x="70" y="145" font-family="Arial, sans-serif" font-weight="700" font-size="34" fill="#1f2937">Реестр программного</text>
    <text x="70" y="187" font-family="Arial, sans-serif" font-weight="700" font-size="34" fill="#1f2937">обеспечения</text>
    <rect x="72" y="220" width="170" height="44" rx="6" fill="#1266d6"/>
    <text x="157" y="249" text-anchor="middle" font-family="Arial, sans-serif" font-weight="700" font-size="16" fill="#fff">Подать заявление</text>
  </g>
  <g transform="translate(910 610) rotate(-5)" filter="url(#shadow)">
    <rect x="18" y="28" width="360" height="210" rx="8" fill="#d6e6fb"/>
    <rect width="360" height="210" rx="8" fill="#ffffff"/>
    <text x="180" y="52" text-anchor="middle" font-family="Arial, sans-serif" font-weight="800" font-size="24" fill="#092f68">ЗАЯВЛЕНИЕ</text>
    <text x="180" y="83" text-anchor="middle" font-family="Arial, sans-serif" font-size="16" fill="#092f68">на включение программного обеспечения</text>
    <g stroke="#1d5bbd" stroke-width="2" fill="none">
      <rect x="42" y="110" width="18" height="18"/><line x1="78" y1="120" x2="300" y2="120"/>
      <rect x="42" y="146" width="18" height="18"/><line x1="78" y1="156" x2="300" y2="156"/>
      <rect x="42" y="182" width="18" height="18"/><line x1="78" y1="192" x2="300" y2="192"/>
    </g>
  </g>
  <g transform="translate(780 640)" filter="url(#shadow)">
    <path d="M90 0 L170 28 V98 C170 170 125 216 90 232 C55 216 10 170 10 98 V28 Z" fill="url(#blue)"/>
    <path d="M52 110 L80 138 L134 70" fill="none" stroke="#fff" stroke-width="18" stroke-linecap="round" stroke-linejoin="round"/>
  </g>
  <g transform="translate(85 735)" fill="#0e4ba7" font-family="Arial, sans-serif">
    <g><circle cx="52" cy="30" r="34" fill="none" stroke="#0e4ba7" stroke-width="4"/><path d="M35 30 l13 13 l24 -30" fill="none" stroke="#0e4ba7" stroke-width="5"/><text x="0" y="95" font-weight="700" font-size="18">СООТВЕТСТВИЕ</text><text x="0" y="120" font-weight="700" font-size="18">ТРЕБОВАНИЯМ</text></g>
    <g transform="translate(260 0)"><rect x="20" y="0" width="64" height="76" rx="7" fill="none" stroke="#0e4ba7" stroke-width="4"/><path d="M38 26 h28 M38 44 h28" stroke="#0e4ba7" stroke-width="4"/><circle cx="88" cy="70" r="20" fill="#eaf3ff" stroke="#0e4ba7" stroke-width="4"/><path d="M78 70 l8 8 l14 -20" fill="none" stroke="#0e4ba7" stroke-width="4"/><text x="0" y="120" font-weight="700" font-size="18">ПАКЕТ ДОКУМЕНТОВ</text></g>
    <g transform="translate(545 0)"><path d="M48 78 V25 M28 45 L48 25 L68 45" fill="none" stroke="#0e4ba7" stroke-width="5" stroke-linecap="round"/><path d="M18 78 h76" stroke="#0e4ba7" stroke-width="5"/><text x="-20" y="120" font-weight="700" font-size="18">ПОДАЧА ЧЕРЕЗ ПОРТАЛ</text></g>
    <g transform="translate(825 0)"><circle cx="52" cy="38" r="38" fill="none" stroke="#0e4ba7" stroke-width="4"/><path d="M32 38 l14 14 l28 -34" fill="none" stroke="#0e4ba7" stroke-width="5"/><text x="-10" y="120" font-weight="700" font-size="18">ВКЛЮЧЕНИЕ В РЕЕСТР</text></g>
  </g>
</svg>

